<svg id="flat" height="512" viewBox="0 0 512 512" width="512" xmlns="http://www.w3.org/2000/svg"><path d="m328 192h32v136h-32z" fill="#a36522"/><path d="m416 200-11.66 31.09-36.34 96.91h-24l30.69-104.33 9.31-31.67z" fill="#b1712c"/><path d="m425.373 214.059h45.255v67.882h-45.255z" fill="#d1e4ff" transform="matrix(.707 -.707 .707 .707 -44.146 389.421)"/><path d="m320 328h136v160h-136z" fill="#548aff"/><path d="m320 328h136v32h-136z" fill="#4f7ff7"/><path d="m224 224a30.7386 30.7386 0 0 0 29.82083-23.2834l2.17917-8.7166a24 24 0 0 0 24-24v-72a24 24 0 0 0 -24-24 24 24 0 0 1 -24-24 24 24 0 0 0 -24-24h-22.11147a28.94425 28.94425 0 0 0 -25.88853 16 28.94425 28.94425 0 0 0 -25.88852-16h-22.11148a24 24 0 0 0 -24 24 24 24 0 0 1 -24 24 24 24 0 0 0 -24 24v72a24 24 0 0 0 24 24l2.17915 8.7166a30.7386 30.7386 0 0 0 29.82085 23.2834z" fill="#ffd873"/><path d="m224 416 72-88v-24a40 40 0 0 0 -40-40h-32v-96h-128v96h-32a40 40 0 0 0 -40 40v24l80 88z" fill="#ffc431"/><path d="m136 152h88v112l-88-24z" fill="#ffb401"/><path d="m96 104v80.00006a63.99994 63.99994 0 0 0 63.99994 63.99994h.00012a63.99994 63.99994 0 0 0 63.99994-63.99994v-80.00006h-7.75121a24 24 0 0 1 -22.28344-15.08662l-6.85887-17.14719a12.35458 12.35458 0 0 0 -11.47093-7.76619 12.35459 12.35459 0 0 0 -11.05026 6.82943l-4.58529 9.17057-4.58528-9.17057a12.35459 12.35459 0 0 0 -11.05026-6.82943 12.35458 12.35458 0 0 0 -11.47093 7.76619l-6.85887 17.14719a24 24 0 0 1 -22.28345 15.08662z" fill="#ffc431"/><circle cx="128" cy="136" fill="#ffa100" r="8"/><circle cx="192" cy="136" fill="#ffa100" r="8"/><g fill="#ffb401"><path d="m152 176h-8v-16h8a8.00917 8.00917 0 0 0 8-8v-24h16v24a24.0275 24.0275 0 0 1 -24 24z"/><path d="m176 216h-22.11133a36.74411 36.74411 0 0 1 -33.04394-20.42188l14.31054-7.15624a20.83107 20.83107 0 0 0 18.7334 11.57812h22.11133z"/><path d="m56 296h16v16h-16z"/><path d="m160 317.50635a47.9884 47.9884 0 0 0 -40-21.50635h-32v16h32a32.03667 32.03667 0 0 1 32 32v40h16v-40a32.03667 32.03667 0 0 1 32-32h32v-16h-32a47.9884 47.9884 0 0 0 -40 21.50635z"/><path d="m248 296h16v16h-16z"/></g><path d="m264 416h-208l-16 24v48h240v-48z" fill="#ffc431"/><path d="m392.97055 352a16.97054 16.97054 0 0 1 12 4.97056l70.05888 70.05888a16.97054 16.97054 0 0 1 4.97056 12 16.97054 16.97054 0 0 1 -16.97054 16.97056 16.97054 16.97054 0 0 1 -12-4.97056l-70.05888-70.05888a16.97054 16.97054 0 0 1 -4.97056-12 16.97054 16.97054 0 0 1 16.97054-16.97056z" fill="#7dafff"/><path d="m352 328 40-48v-24l16-16 48 48-16 16h-16l-24 24z" fill="#c78640"/><path d="m384 192 4.47325-22.36626a30.98786 30.98786 0 0 1 20.58688-23.32045 30.98781 30.98781 0 0 0 12.11251-7.48594l10.82736-10.82735 2.42012 14.52071a65.954 65.954 0 0 1 -18.42012 57.47929z" fill="#d1e4ff"/><path d="m328 192-5.48308-10.96615a26.63915 26.63915 0 0 1 9.05-34.07849 26.63934 26.63934 0 0 0 7.38837-7.38837l13.04471-19.56699 5.59286 9.32143a65.17411 65.17411 0 0 1 2.40714 62.67857z" fill="#d1e4ff"/><path d="m328 192h32v32h-32z" fill="#ffc431"/><path d="m416 200-11.66 31.09-29.65-7.42 9.31-31.67z" fill="#ffc431"/><path d="m264 416h-208l-16 24h240z" fill="#ffb401"/></svg>