<svg id="flat" height="512" viewBox="0 0 512 512" width="512" xmlns="http://www.w3.org/2000/svg"><path d="m144 160h-56a64 64 0 0 0 -64 64v80h120z" fill="#ffc431"/><path d="m88 304-24-24 6.35851-63.585a32 32 0 0 1 15.96474-24.59966l41.67675-23.81534h32l42.10811 24.06178a32 32 0 0 1 15.87645 23.81467l6.01544 48.12355v40z" fill="#f78e00"/><path d="m136 168h16v32h-16z" fill="#e67a00"/><path d="m256 104h200v128h-200z" fill="#6173e8"/><path d="m336 168h48v136h-48z" fill="#8899f7"/><path d="m288 280h48v24h-48z" fill="#7588f0"/><path d="m24 304h464v32h-464z" fill="#b1712c"/><path d="m464 336-32 80h-352l-32-80z" fill="#91591c"/><path d="m432 416 32-80h-328l32 80z" fill="#a36522"/><path d="m24 304h144v32h-144z" fill="#a36522"/><g fill="#e67a00"><path d="m96 224h16v48h-16z"/><path d="m136 208h16v72h-16z"/><path d="m184 224h16v64h-16z"/></g><path d="m64 280 40-24 88 24h24v24h-128z" fill="#ffceb6"/><path d="m192 264h48a0 0 0 0 1 0 0v16a24 24 0 0 1 -24 24 24 24 0 0 1 -24-24v-16a0 0 0 0 1 0 0z" fill="#e0edff"/><path d="m168 128v24a24 24 0 0 1 -24 24 24 24 0 0 1 -24-24v-24z" fill="#ffceb6"/><path d="m120 128h48v-13.57781a18.42218 18.42218 0 0 0 -18.42219-18.42219 18.42223 18.42223 0 0 0 -10.21881 3.094l-19.359 12.906z" fill="#b1712c"/></svg>