<svg id="Capa_1" enable-background="new 0 0 512 512" height="512" viewBox="0 0 512 512" width="512" xmlns="http://www.w3.org/2000/svg"><g><path d="m5 355.319-5 6.878v98.695c0 3.314 2.686 6 6 6h43.003l21.212-6.941 21.212 6.941h39.379l21.212-6.941 21.212 6.941h48.244l33.599-6.941 33.6 6.941h48.244l21.212-6.941 21.212 6.941h39.379l21.621-6.941 20.802 6.941h44.003c3.314 0 6-2.687 6-6v-98.695l-5-6.878z" fill="#e7ecf6"/><path d="m469.579 355.319.06 111.573h35.501c3.316 0 6.004-2.688 6.004-6.004v-98.691l-5-6.878z" fill="#d8e2f1"/><path d="m323.291 150.554h-136.438l-5.661 6.751c-.924 4.711-1.408 9.58-1.408 14.562v75.334h150.577v-75.334c0-4.982-.484-9.851-1.408-14.562z" fill="#e7ecf6"/><path d="m293.671 150.554c2.002 6.772 3.091 13.936 3.091 21.358v75.288h33.599v-75.288c0-4.998-.495-9.879-1.43-14.603l-5.663-6.755z" fill="#d8e2f1"/><g><path d="m255.072 123.16c-4.145 0-7.505-3.36-7.505-7.505v-63.042c0-4.145 3.36-7.505 7.505-7.505s7.505 3.36 7.505 7.505v63.042c0 4.145-3.36 7.505-7.505 7.505z" fill="#dd636e"/></g><g><path d="m179.815 188.505h150.546v15.01h-150.546z" fill="#4a80aa"/></g><g><path d="m247.567 196.01h15.01v47.419h-15.01z" fill="#4a80aa"/></g><g><path d="m289.157 196.01h15.01v51.19h-15.01z" fill="#4a80aa"/></g><g><path d="m205.983 196.01h15.01v51.19h-15.01z" fill="#4a80aa"/></g><g><path d="m390.681 342.279h-270.217v-100.493c0-3.314 2.686-6 6-6h258.217c3.314 0 6 2.686 6 6z" fill="#e7ecf6"/></g><g><path d="m384.677 235.786h-41.584c3.316 0 6.004 2.688 6.004 6.004v100.489h41.584v-100.489c0-3.316-2.688-6.004-6.004-6.004z" fill="#d8e2f1"/></g><g><path d="m255.087 267.842h-.029c-11.695 0-21.176 9.481-21.176 21.176v32.651h42.381v-32.651c0-11.695-9.481-21.176-21.176-21.176z" fill="#4a80aa"/></g><g><path d="m330.344 267.842h-.029c-11.695 0-21.176 9.481-21.176 21.176v32.651h42.381v-32.651c0-11.695-9.481-21.176-21.176-21.176z" fill="#4a80aa"/></g><g><path d="m179.83 267.842h-.029c-11.695 0-21.176 9.481-21.176 21.176v32.651h42.381v-32.651c0-11.695-9.481-21.176-21.176-21.176z" fill="#4a80aa"/></g><g><path d="m255.072 267.842c-3.457 0-6.711.845-9.595 2.314 6.876 3.502 11.596 10.631 11.596 18.877v32.637h19.189v-32.637c.001-11.704-9.486-21.191-21.19-21.191z" fill="#407093"/></g><g><path d="m330.329 267.842c-3.458 0-6.712.845-9.595 2.314 6.876 3.502 11.596 10.631 11.596 18.877v32.637h19.189v-32.637c.001-11.704-9.486-21.191-21.19-21.191z" fill="#407093"/></g><g><path d="m179.816 267.842c-3.458 0-6.711.845-9.595 2.314 6.876 3.502 11.596 10.631 11.596 18.877v32.637h19.189v-32.637c0-11.704-9.487-21.191-21.19-21.191z" fill="#407093"/></g><g><path d="m508.995 281.955h-57.726v-46.156h57.726c2.127 0 3.58 2.151 2.784 4.124l-7.187 17.832c-.29.72-.29 1.524 0 2.244l7.187 17.832c.796 1.973-.657 4.124-2.784 4.124z" fill="#f6e266"/></g><g><path d="m504.592 259.999c-.29-.72-.29-1.524 0-2.244l7.187-17.832c.795-1.973-.657-4.124-2.784-4.124h-11.44l-8.749 21.707c-.354.88-.354 1.863 0 2.742l8.749 21.707h11.44c2.127 0 3.58-2.151 2.784-4.124z" fill="#f1d333"/></g><g><path d="m451.27 345.498c-4.145 0-7.505-3.36-7.505-7.505v-100.193c0-4.145 3.36-7.505 7.505-7.505s7.505 3.36 7.505 7.505v100.192c0 4.145-3.36 7.506-7.505 7.506z" fill="#4a80aa"/></g><g><path d="m70.395 281.955h-57.725v-46.156h57.726c2.127 0 3.58 2.151 2.784 4.124l-7.187 17.832c-.29.72-.29 1.524 0 2.244l7.187 17.832c.795 1.973-.658 4.124-2.785 4.124z" fill="#f6e266"/></g><g><path d="m65.993 259.999c-.29-.72-.29-1.524 0-2.244l7.187-17.832c.795-1.973-.657-4.124-2.784-4.124h-11.44l-8.749 21.707c-.354.88-.354 1.863 0 2.742l8.749 21.707h11.44c2.127 0 3.58-2.151 2.784-4.124z" fill="#f1d333"/></g><g><path d="m12.67 345.498c-4.145 0-7.505-3.36-7.505-7.505v-100.193c0-4.145 3.36-7.505 7.505-7.505s7.505 3.36 7.505 7.505v100.192c0 4.145-3.36 7.506-7.505 7.506z" fill="#4a80aa"/></g><g><path d="m255.095 390.74h-.045c-18.544 0-33.576 15.033-33.576 33.576v42.576h67.198v-42.576c0-18.543-15.033-33.576-33.577-33.576z" fill="#4a80aa"/></g><g><path d="m255.072 390.74c-4.076 0-7.981.727-11.596 2.056 12.842 4.723 22.003 17.063 22.003 31.543v42.553h23.192v-42.553c.001-18.556-15.042-33.599-33.599-33.599z" fill="#407093"/></g><g><path d="m375.339 424.469h-34.423c-2.209 0-4 1.791-4 4v38.423h42.423v-38.423c0-2.209-1.791-4-4-4z" fill="#4a80aa"/></g><g><path d="m457.142 424.469h-34.423c-2.209 0-4 1.791-4 4v38.423h42.423v-38.423c0-2.209-1.791-4-4-4z" fill="#4a80aa"/></g><g><path d="m87.427 424.469h-34.424c-2.209 0-4 1.791-4 4v38.423h42.423v-38.423c.001-2.209-1.79-4-3.999-4z" fill="#4a80aa"/></g><g><path d="m169.229 424.469h-34.423c-2.209 0-4 1.791-4 4v38.423h42.423v-38.423c0-2.209-1.791-4-4-4z" fill="#4a80aa"/></g><g><path d="m375.337 424.469h-16.8c2.211 0 4.003 1.792 4.003 4.003v38.421h16.8v-38.421c-.001-2.211-1.793-4.003-4.003-4.003z" fill="#407093"/></g><g><path d="m457.139 424.469h-16.8c2.211 0 4.003 1.792 4.003 4.003v38.421h16.8v-38.421c0-2.211-1.792-4.003-4.003-4.003z" fill="#407093"/></g><g><path d="m87.424 424.469h-16.8c2.21 0 4.003 1.792 4.003 4.003v38.421h16.799v-38.421c.001-2.211-1.791-4.003-4.002-4.003z" fill="#407093"/></g><g><path d="m169.226 424.469h-16.799c2.211 0 4.003 1.792 4.003 4.003v38.421h16.799v-38.421c0-2.211-1.792-4.003-4.003-4.003z" fill="#407093"/></g><g><path d="m505.141 314.588h-499.137c-3.316 0-6.004 2.688-6.004 6.004v41.605h511.145v-41.605c0-3.316-2.688-6.004-6.004-6.004z" fill="#dd636e"/></g><g><path d="m469.561 320.592v41.605h41.584v-41.605c0-3.316-2.688-6.004-6.004-6.004h-41.584c3.316 0 6.004 2.688 6.004 6.004z" fill="#da4a54"/></g><g><path d="m181.212 157.309h147.721c-6.801-34.589-37.278-60.685-73.86-60.685-36.583 0-67.06 26.095-73.861 60.685z" fill="#dd636e"/></g><g><path d="m255.072 96.624c-5.718 0-11.286.638-16.638 1.845-.053.022-.105.047-.161.06 28.813 6.57 51.326 29.659 57.055 58.78h33.605c-6.801-34.59-37.278-60.685-73.861-60.685z" fill="#da4a54"/></g></g></svg>