<svg id="Capa_1" enable-background="new 0 0 512 512" height="512" viewBox="0 0 512 512" width="512" xmlns="http://www.w3.org/2000/svg"><g id="XMLID_1162_"><g id="XMLID_344_"><path id="XMLID_350_" d="m387.977 163.294c-17.109 19.528-27.481 45.103-27.481 73.098v-191.56c0-19.237-15.595-34.832-34.832-34.832-19.236 0-34.83 15.593-34.832 34.828-.002-19.235-15.596-34.828-34.832-34.828-19.237 0-34.832 15.595-34.832 34.832 0-19.237-15.595-34.832-34.832-34.832s-34.832 15.595-34.832 34.832v191.56c0-27.995-10.373-53.57-27.482-73.098-28.983-33.08-83.575-12.23-83.575 31.75 22.824.02 41.394 18.605 41.394 41.43v5.376 85.991c0 96.185 77.973 174.159 174.159 174.159s174.159-77.974 174.159-174.159v-85.991-5.376c0-22.824 18.569-41.41 41.394-41.43 0-43.98-54.593-64.83-83.576-31.75z" fill="#ffd88e"/></g><g id="XMLID_1199_"><ellipse cx="256" cy="366.124" fill="#fff" rx="108.775" ry="55.043"/></g><g id="XMLID_1251_"><circle id="XMLID_345_" cx="256" cy="366.124" fill="#a0c8ff" r="48.44"/></g><g id="XMLID_374_"><path id="XMLID_375_" d="m443.967 140.84c-23.019-8.657-47.353-2.578-63.511 15.864-3.631 4.144-6.955 8.509-9.96 13.061v-124.933c0-24.721-20.111-44.832-44.832-44.832-14.05 0-26.606 6.502-34.832 16.649-8.226-10.147-20.782-16.649-34.832-16.649s-26.606 6.502-34.832 16.649c-8.226-10.147-20.782-16.649-34.832-16.649-24.72 0-44.831 20.111-44.831 44.832v124.934c-3.005-4.552-6.33-8.917-9.961-13.062-16.157-18.442-40.492-24.52-63.511-15.864-22.832 8.587-37.586 29.864-37.586 54.204 0 5.52 4.472 9.995 9.991 10 17.315.015 31.402 14.114 31.402 31.43v91.367c0 83.521 56.328 156.741 136.979 178.058.856.227 1.716.334 2.562.334 4.428 0 8.477-2.964 9.661-7.447 1.411-5.339-1.773-10.812-7.112-12.223-71.886-19-122.091-84.269-122.091-158.722v-91.367c0-24.582-17.348-45.201-40.444-50.248 3.163-14.118 13.706-22.916 23.678-26.666 11.773-4.429 28.84-4.043 41.427 10.323 16.124 18.403 25.004 42.023 25.004 66.508 0 5.523 4.478 10 10 10s10-4.477 10-10v-191.559c.001-13.692 11.14-24.832 24.832-24.832s24.832 11.14 24.832 24.832v191.56c0 5.523 4.478 10 10 10s10-4.477 10-10v-191.56c0-13.692 11.14-24.832 24.832-24.832s24.832 11.14 24.832 24.832v191.56c0 5.523 4.478 10 10 10s10-4.477 10-10v-191.56c0-13.692 11.14-24.832 24.832-24.832s24.832 11.14 24.832 24.832v191.474c0 .029-.001.057-.001.086 0 5.523 4.478 10 10 10 5.522 0 10-4.477 10-10v-.043c.011-24.47 8.889-48.073 25.003-66.465 12.587-14.366 29.653-14.752 41.427-10.323 9.972 3.75 20.515 12.548 23.678 26.666-23.097 5.047-40.444 25.667-40.444 50.248v91.367c0 74.452-50.204 139.72-122.088 158.721-5.339 1.411-8.523 6.884-7.112 12.224 1.186 4.483 5.232 7.447 9.661 7.447.846 0 1.706-.108 2.562-.334 80.649-21.318 136.977-94.537 136.977-178.057v-91.367c0-17.315 14.087-31.415 31.402-31.43 5.52-.005 9.991-4.48 9.991-10 .001-24.342-14.753-45.618-37.585-54.206z"/><path id="XMLID_378_" d="m322.501 415.045c19.726-10.2 37.128-25.066 50.327-42.992 2.597-3.526 2.597-8.332 0-11.858-13.199-17.926-30.602-32.793-50.327-42.993-20.396-10.546-43.392-16.121-66.501-16.121s-46.104 5.575-66.501 16.121c-19.725 10.2-37.128 25.066-50.327 42.993-2.597 3.526-2.597 8.332 0 11.858 13.199 17.926 30.603 32.792 50.327 42.992 20.396 10.547 43.393 16.122 66.501 16.122 23.109 0 46.105-5.575 66.501-16.122zm-66.501-87.361c21.196 0 38.44 17.244 38.44 38.44s-17.244 38.44-38.44 38.44-38.44-17.244-38.44-38.44 17.244-38.44 38.44-38.44zm96.072 38.44c-13.55 16.238-30.955 28.648-50.317 36.292 7.931-9.977 12.686-22.586 12.686-36.292s-4.755-26.315-12.686-36.292c19.362 7.645 36.767 20.054 50.317 36.292zm-192.144 0c13.55-16.235 30.955-28.645 50.315-36.29-7.929 9.977-12.684 22.585-12.684 36.29s4.754 26.313 12.684 36.29c-19.361-7.645-36.765-20.055-50.315-36.29z"/><path id="XMLID_381_" d="m256 492c-2.63 0-5.21 1.07-7.07 2.93s-2.93 4.44-2.93 7.07 1.069 5.21 2.93 7.07 4.44 2.93 7.07 2.93 5.21-1.07 7.069-2.93c1.86-1.86 2.931-4.44 2.931-7.07s-1.07-5.21-2.931-7.07c-1.859-1.86-4.439-2.93-7.069-2.93z"/></g></g></svg>