<svg height="512pt" viewBox="0 -32 512 512" width="512pt" xmlns="http://www.w3.org/2000/svg"><path d="m504.660156 3.945312c-2.984375-1.941406-6.761718-2.261718-10.046875-.808593-.9375.425781-95.316406 41.34375-238.613281 41.34375-144.832031 0-237.609375-40.894531-238.550781-41.300781-3.261719-1.472657-7.058594-1.195313-10.066407.746093-3.007812 1.960938-4.824218 5.289063-4.824218 8.875v380.160157c0 4.136718 2.433594 7.914062 6.230468 9.621093 3.902344 1.75 97.492188 43.179688 247.210938 43.179688 147.710938 0 243.15625-41.367188 247.148438-43.160157 3.816406-1.664062 6.292968-5.460937 6.292968-9.640624v-380.160157c0-3.5625-1.792968-6.890625-4.78125-8.855469zm0 0" fill="#eceff1"/><path d="m74.644531 213.332031c-16.851562 0-30.890625-13.160156-31.957031-29.972656-.382812-5.867187 4.097656-10.941406 9.964844-11.304687 5.652344-.707032 10.941406 4.074218 11.328125 9.984374.359375 5.585938 5.03125 9.980469 10.664062 9.980469 5.890625-.019531 10.6875-4.820312 10.6875-10.6875 0-4.757812-2.023437-8.210937-12.117187-10.707031l-2.109375-.511719c-23.511719-5.761719-28.4375-20.289062-28.4375-31.445312 0-17.644531 14.355469-32 32.019531-32 16.855469 0 30.890625 13.140625 31.957031 29.929687.386719 5.910156-4.09375 10.964844-9.960937 11.347656-5.867188.429688-10.945313-4.074218-11.328125-9.960937-.363281-5.609375-5.035157-9.984375-10.667969-9.984375-5.886719 0-10.6875 4.800781-10.6875 10.667969 0 4.777343 2.046875 8.234375 12.179688 10.707031l2.175781.535156c23.40625 5.824219 28.3125 20.308594 28.3125 31.421875 0 17.644531-14.359375 32-32.023438 32zm0 0"/><path d="m288 213.332031h-42.667969c-5.886719 0-10.664062-4.777343-10.664062-10.664062v-85.335938c0-5.886719 4.777343-10.664062 10.664062-10.664062h42.667969c5.886719 0 10.667969 4.777343 10.667969 10.664062 0 5.890625-4.78125 10.667969-10.667969 10.667969h-32v64h32c5.886719 0 10.667969 4.777344 10.667969 10.667969 0 5.886719-4.78125 10.664062-10.667969 10.664062zm0 0"/><path d="m277.332031 170.667969h-32c-5.886719 0-10.664062-4.78125-10.664062-10.667969s4.777343-10.667969 10.664062-10.667969h32c5.890625 0 10.667969 4.78125 10.667969 10.667969s-4.777344 10.667969-10.667969 10.667969zm0 0"/><path d="m373.332031 213.332031h-42.664062c-5.890625 0-10.667969-4.777343-10.667969-10.664062v-85.335938c0-5.886719 4.777344-10.664062 10.667969-10.664062h42.664062c5.890625 0 10.667969 4.777343 10.667969 10.664062 0 5.890625-4.777344 10.667969-10.667969 10.667969h-32v64h32c5.890625 0 10.667969 4.777344 10.667969 10.667969 0 5.886719-4.777344 10.664062-10.667969 10.664062zm0 0"/><path d="m362.667969 170.667969h-32c-5.890625 0-10.667969-4.78125-10.667969-10.667969s4.777344-10.667969 10.667969-10.667969h32c5.886719 0 10.664062 4.78125 10.664062 10.667969s-4.777343 10.667969-10.664062 10.667969zm0 0"/><path d="m192 213.332031c-4.542969 0-8.640625-2.898437-10.113281-7.292969l-11.21875-33.644531-11.222657 33.644531c-1.578124 4.753907-6.273437 7.550782-11.15625 7.25-4.949218-.488281-8.917968-4.351562-9.535156-9.300781l-10.667968-85.332031c-.726563-5.84375 3.414062-11.179688 9.257812-11.902344 5.867188-.8125 11.179688 3.390625 11.902344 9.257813l4.84375 38.675781 6.464844-19.390625c2.902343-8.703125 17.324218-8.703125 20.222656 0l6.464844 19.390625 4.84375-38.675781c.726562-5.847657 6.058593-10.070313 11.902343-9.257813 5.847657.722656 9.984375 6.058594 9.257813 11.921875l-10.664063 85.335938c-.621093 4.925781-4.566406 8.789062-9.535156 9.300781-.34375 0-.707031.019531-1.046875.019531zm0 0"/><path d="m458.667969 128h-42.667969c-5.886719 0-10.667969-4.777344-10.667969-10.667969 0-5.886719 4.78125-10.664062 10.667969-10.664062h42.667969c5.886719 0 10.664062 4.777343 10.664062 10.664062 0 5.890625-4.777343 10.667969-10.664062 10.667969zm0 0"/><path d="m437.332031 213.332031c-5.886719 0-10.664062-4.777343-10.664062-10.664062v-85.335938c0-5.886719 4.777343-10.664062 10.664062-10.664062 5.890625 0 10.667969 4.777343 10.667969 10.664062v85.335938c0 5.886719-4.777344 10.664062-10.667969 10.664062zm0 0"/><path d="m224 384c-5.886719 0-10.667969-4.777344-10.667969-10.667969v-59.582031l-3.113281 3.113281c-4.160156 4.160157-10.921875 4.160157-15.082031 0-4.160157-4.160156-4.160157-10.921875 0-15.082031l21.332031-21.332031c3.050781-3.050781 7.636719-3.949219 11.628906-2.304688 3.964844 1.640625 6.570313 5.546875 6.570313 9.855469v85.332031c0 5.890625-4.78125 10.667969-10.667969 10.667969zm0 0"/><path d="m288 384c-17.644531 0-32-14.355469-32-32 0-17.640625 14.355469-32 32-32s32 14.359375 32 32c0 17.644531-14.355469 32-32 32zm0-42.667969c-5.886719 0-10.667969 4.800781-10.667969 10.667969s4.78125 10.667969 10.667969 10.667969 10.667969-4.800781 10.667969-10.667969-4.78125-10.667969-10.667969-10.667969zm0 0"/><path d="m266.667969 362.667969c-5.890625 0-10.667969-4.78125-10.667969-10.667969v-21.332031c0-29.417969 23.9375-53.335938 53.332031-53.335938 5.890625 0 10.667969 4.78125 10.667969 10.667969s-4.777344 10.667969-10.667969 10.667969c-17.640625 0-32 14.355469-32 32v21.332031c0 5.886719-4.777343 10.667969-10.664062 10.667969zm0 0"/><path d="m256 448c-151.210938 0-245.761719-41.835938-249.726562-43.605469-3.820313-1.726562-6.273438-5.546875-6.273438-9.726562v-384c0-3.628907 1.835938-6.976563 4.886719-8.960938 3.027343-1.941406 6.890625-2.21875 10.175781-.769531.917969.40625 94.632812 41.730469 240.9375 41.730469 144.746094 0 240.085938-41.34375 241.023438-41.75 3.308593-1.472657 7.105468-1.152344 10.132812.808593 3.03125 1.984376 4.84375 5.335938 4.84375 8.941407v384c0 4.222656-2.496094 8.0625-6.355469 9.75-4.035156 1.789062-100.4375 43.582031-249.644531 43.582031zm-234.667969-60.5c23.320313 9.109375 109.847657 39.167969 234.667969 39.167969 123.519531 0 211.070312-30.101563 234.667969-39.191407v-361.195312c-32.875 11.949219-117.484375 37.71875-234.667969 37.71875-118.378906 0-202.027344-25.621094-234.667969-37.632812zm0 0"/><path d="m352.042969 335.980469c-5.3125 0-9.878907-3.949219-10.582031-9.34375-.746094-5.824219 3.390624-11.160157 9.238281-11.925781 29.226562-3.691407 57.492187-8.984376 84.03125-15.722657 5.609375-1.515625 11.519531 1.984375 12.949219 7.699219 1.449218 5.71875-2.003907 11.519531-7.699219 12.949219-27.394531 6.957031-56.535157 12.417969-86.613281 16.234375-.429688.085937-.875.109375-1.324219.109375zm0 0"/><path d="m160.0625 336.085938c-.445312 0-.894531-.023438-1.320312-.085938-30.402344-3.820312-59.5625-9.257812-86.699219-16.171875-5.71875-1.449219-9.152344-7.253906-7.703125-12.949219 1.453125-5.738281 7.234375-9.214844 12.972656-7.699218 26.28125 6.675781 54.570312 11.96875 84.074219 15.65625 5.84375.726562 9.984375 6.058593 9.257812 11.925781-.683593 5.378906-5.269531 9.324219-10.582031 9.324219zm0 0"/></svg>